<?xml version="1.0" encoding="UTF-8" standalone="no"?>
<!-- Created with Inkscape (http://www.inkscape.org/) -->

<svg
   version="1.1"
   id="svg2"
   width="908.9897"
   height="373.37689"
   viewBox="0 0 1508.9897 573.3769"
   sodipodi:docname="Beachin-01.svg"
   xml:space="preserve"
   inkscape:version="1.2.2 (b0a8486541, 2022-12-01)"
   xmlns:inkscape="http://www.inkscape.org/namespaces/inkscape"
   xmlns:sodipodi="http://sodipodi.sourceforge.net/DTD/sodipodi-0.dtd"
   xmlns="http://www.w3.org/2000/svg"
   xmlns:svg="http://www.w3.org/2000/svg"><defs
     id="defs6"><g
       id="g616" /></defs><sodipodi:namedview
     id="namedview4"
     borderopacity="0.25"
     inkscape:showpageshadow="2"
     inkscape:pageopacity="0.0"
     inkscape:pagecheckerboard="0"
     inkscape:deskcolor="#d1d1d1"
     showgrid="false"
     inkscape:zoom="0.66964724"
     inkscape:cx="597.32942"
     inkscape:cy="191.89208"
     inkscape:window-width="1854"
     inkscape:window-height="1011"
     inkscape:window-x="0"
     inkscape:window-y="0"
     inkscape:window-maximized="1"
     inkscape:current-layer="g8" /><g
     inkscape:groupmode="layer"
     inkscape:label="Image"
     id="g8"
     transform="translate(-146.53517,-128.63164)"><path
       style="fill:#0c3747;stroke:none;stroke-width:0.32;"
       d="m 285.89517,237.99631 c 7.21984,0.9728 14.46368,3.9008 21.44,5.9456 35.84096,10.4928 78.8096,36.368 79.68,78.5344 h -0.32 c -3.3696,-12.3264 -14.7984,-23.3568 -25.28,-29.8944 -33.31584,-20.784 -74.91904,-10.9952 -100.2096,17.7344 -5.59008,6.3488 -12.28224,14.4288 -14.6704,22.72 11.24064,-3.8272 21.84768,-10.2912 32.96,-14.656 28.6032,-11.2288 68.24352,-16.8288 93.12,6.016 -25.63712,-5.2896 -61.18144,3.0752 -70.69472,30.72 -1.74784,5.0784 -1.9456,10.0512 -1.94528,15.36 3.2e-4,6.2592 1.57536,14.8832 5.12,20.16 2.75616,-5.8944 4.88096,-11.92 8.13664,-17.6 8.44224,-14.7264 20.35488,-26.4992 35.38336,-34.3552 5.66784,-2.9632 11.8304,-4.6176 18.24,-4.6848 3.2,-0.0352 5.97984,0.0256 8.06752,2.8832 3.50048,4.7936 -1.03232,12.2816 -2.49184,17.2768 -4.38912,15.0208 -7.3872,30.3232 -9.8672,45.76 -2.36992,14.7552 -3.624,29.632 -5.04288,44.48 -3.04928,31.9104 -2.928,66.5632 16.06272,94.08 4.65088,6.736 10.15168,12.7744 16.31168,18.1472 10.9248,9.5328 23.9872,16.8992 37.12,22.912 27.9968,12.8192 58.2944,19.8528 88.96,21.952 12.5888,0.8608 25.168,0.4096 37.76,0.3488 33.104,-0.16 66.2592,-1.3856 99.2,-4.5344 25.728,-2.4576 51.392,-5.7216 77.12,-8.2112 45.088,-4.3616 90.2816,-7.1584 135.36,-11.52 37.8848,-3.6672 75.952,-6.9632 113.92,-9.6256 8.96,-0.6272 19.48803,-0.2944 28.16003,-2.64 3.8656,-1.0464 6.9824,-3.872 7.584,-7.9488 1.8976,-12.8736 -11.2608,-20.3104 -22.30403,-19.8272 -11.7408,0.5152 -23.4688,2.6752 -35.2,3.4784 -24.0608,1.6512 -48.2048,2.9632 -72.32,3.552 -20.3552,0.4992 -40.8064,2.096 -61.12,3.488 -72.6912,4.9792 -145.2768,11.5488 -218.24,11.5488 -22.4,0 -44.5728,-0.9952 -66.88,-2.5312 -26.4064,-1.8176 -52.2368,-5.9552 -76.48,-17.088 -9.4848,-4.3552 -18.4672,-10.3584 -26.88,-16.4928 -22.288,-16.2496 -43.6256,-37.792 -51.3824,-65.008 -2.7104,-9.504 -2.784,-19.0176 -3.0208,-28.8 -0.3008,-12.1536 0.016,-24.3584 1.2288,-36.48 1.312,-13.1232 3.136,-26.1152 5.8144,-39.04 1.0752,-5.1936 1.6736,-11.7184 6.4,-15.024 8.8736,-6.1984 23.4048,1.6576 29.1168,8.944 4.352,5.5552 6.4384,12.6976 7.8112,19.52 2.7552,13.6928 2.2592,26.896 0.512,40.64 4.5408,-2.2624 8.624,-6.608 11.7056,-10.56 11.872,-15.232 14.448,-40.928 0.72,-56 -7.6064,-8.3488 -19.8304,-10.88 -30.6656,-10.88 v -0.32 c 9.8912,-2.3424 18.4224,-4.9216 28.8,-4.4672 26.176,1.1456 49.1296,16.4128 68.48,32.7616 6.8064,5.7536 12.896,12.9888 20.16,18.1056 -2.2048,-27.8912 -21.6256,-55.9744 -46.4,-68.3616 -19.6736,-9.8368 -44.3488,-9.7024 -64,0.1248 -7.5008,3.7504 -13.5616,8.9984 -19.2,15.1168 6.1856,-13.2512 18.864,-23.4304 31.68,-29.84 30.8032,-15.4016 69.168,-11.872 101.44,-2.8 -1.8528,-3.5712 -5.648,-6.7456 -8.64,-9.3696 -5.4272,-4.7616 -10.9856,-9.2192 -17.28,-12.8 -28.8576,-16.4128 -66.4128,-17.168 -91.84,6.5184 -6.7744,6.3104 -11.0656,13.3568 -15.36,21.4112 -2.7584,-11.2 -5.4592,-21.408 -11.6576,-31.36 -14.77408,-23.7344 -41.7776,-38.0288 -69.6224,-36.8128 -9.01568,0.3936 -17.73664,1.7408 -26.24,4.9504 -2.44992,0.9216 -6.84544,2.0928 -8.32,4.3424 m 115.84,85.76 -0.32,0.32 0.32,-0.32"
       id="path293"
       class="UnoptimicedTransforms" /><path
       style="fill:#0c3747;stroke:none;stroke-width:0.32"
       d="m 1434.5352,516.71631 v 64.64 h 48.32 v -13.12 h -32.96 v -51.52 h -15.36"
       id="path366" /><path
       style="fill:#0c3747;stroke:none;stroke-width:0.32"
       d="m 1344.6152,581.35631 h 11.52 l 4.1376,-0.512 4.0544,-9.408 2.1152,-3.648 7.6128,-0.192 h 17.92 l 3.8368,9.92 1.7632,3.5104 4.32,0.3296 h 11.2 l -5.7568,-14.4 -14.1472,-34.56 -6.336,-15.68 h -11.2 l -4.592,0.3296 -2.176,4.4704 -4.704,11.52 -12.9824,31.68 -6.5856,16.64 m 34.24,-45.12 c 2.768,5.1904 6.3616,12.448 7.36,18.24 h -14.72 l 4.096,-10.88 z"
       id="path364" /><path
       style="fill:#0c3747;stroke:none;stroke-width:0.32"
       d="m 1274.5352,516.71631 v 13.44 h 21.44 v 51.2 h 15.36 v -51.2 h 16 l 5.4304,-0.512 0.3296,-3.648 v -9.28 h -58.56"
       id="path362" /><path
       style="fill:#0c3747;stroke:none;stroke-width:0.32"
       d="m 1188.7752,516.71631 v 64.64 h 15.04 v -38.72 c 8.3232,8.6976 15.7824,18.3936 23.6384,27.52 2.6912,3.1264 5.9616,8.9824 9.6448,10.8704 3.1776,1.6288 9.8784,0.3296 13.4368,0.3296 v -64.64 h -14.72 v 39.04 c -8.5216,-8.7008 -16.0128,-18.608 -23.9584,-27.84 -2.6848,-3.12 -6,-8.96 -9.6544,-10.8704 -3.1328,-1.6384 -9.8976,-0.3296 -13.4272,-0.3296"
       id="path360" /><path
       style="fill:#0c3747;stroke:none;stroke-width:0.32"
       d="m 1116.7752,516.71631 v 64.64 h 48 v -13.12 h -33.28 v -13.12 h 32 v -12.16 h -32 v -13.12 h 33.28 v -13.12 h -48"
       id="path358" /><path
       style="fill:#0c3747;stroke:none;stroke-width:0.32"
       d="m 1038.6952,516.71631 v 64.64 h 14.72 v -13.76 c 1.6768,0 3.8592,-0.3648 5.44,0.2752 6.1408,2.4864 9.728,10.2528 15.68,13.1584 1.6512,0.8032 4.2816,0.3264 6.08,0.3264 h 13.76 c -4.6752,-6.1152 -12.2496,-10.7776 -17.92,-16 19.1648,-5.52 21.0208,-31.8368 6.4,-42.912 -11.8688,-8.9888 -30.1856,-5.728 -44.16,-5.728 m 14.72,37.76 v -24.64 c 5.8944,0 13.664,-1.3504 18.88,1.9488 8.4224,5.3312 7.216,17.9392 -1.92,21.7696 -4.9184,2.064 -11.7184,0.9216 -16.96,0.9216"
       id="path356" /><path
       style="fill:#0c3747;stroke:none;stroke-width:0.32"
       d="m 1511.3352,563.43631 c -1.5424,2.7712 -3.4688,5.36 -5.2256,8 -0.544,0.8128 -1.7344,2.0768 -1.5328,3.1424 0.2336,1.2352 2.2752,2.0192 3.2384,2.5696 3.4272,1.9584 7.072,3.4816 10.88,4.5248 13.2352,3.6256 35.5072,-0.0192 36.7712,-17.2768 0.8736,-11.936 -8.1568,-19.0816 -18.8512,-22.1248 -3.952,-1.1264 -8.3456,-1.9712 -11.84,-4.24 -1.392,-0.9024 -2.9696,-2.208 -2.8768,-4.0352 0.128,-2.5056 2.6336,-4.2816 4.7968,-5.0048 6.2016,-2.0704 10.8736,1.7376 16.64,2.7648 l 7.68,-10.88 c -9.056,-3.7696 -17.136,-7.2352 -27.2,-4.9824 -11.5328,2.5792 -22.0064,14.576 -15.2512,26.4224 3.5456,6.2208 10.9248,9.2384 17.4912,11.0656 4.1632,1.1552 9.136,2.0384 12.4192,5.0848 4.464,4.1376 -0.144,9.392 -4.7392,10.576 -5.4784,1.4112 -11.3504,-0.1952 -16.32,-2.5632 -2.032,-0.9664 -3.872,-2.5376 -6.08,-3.0432"
       id="path354" /><path
       style="fill:#0c3747;stroke:none;stroke-width:0.32"
       d="m 670.45517,293.75631 c -48.3296,48.3296 -96.08,98.0512 -136.1856,153.6 -3.808,5.2768 -6.8,10.6784 -7.44,17.28 -1.888,19.5168 13.04,40.1504 33.5456,40.32 0,-17.8048 11.8848,-35.6288 20.9856,-50.24 22.2624,-35.7504 49.4944,-68.2496 76.848,-100.16 11.0176,-12.8544 29.5392,-26.9184 23.232,-46.08 -0.8608,-2.6208 -1.9904,-5.0752 -3.5456,-7.36 -1.9104,-2.8064 -4.5568,-5.5552 -7.44,-7.36"
       id="path350" /><path
       style="fill:#0c3747;stroke:none;stroke-width:0.32"
       d="m 1365.1752,270.85071 c -6.2784,0.816 -11.7152,2.4576 -16.64,6.6816 -11.9424,10.24 -12.0288,29.5552 -0.64,40.1952 6.2368,5.8272 14.6976,8.1024 23.04,6.976 3.3184,-0.448 6.7264,-1.7312 9.6,-3.4304 19.648,-11.6192 16.4864,-41.6384 -5.12,-48.9568 -3.12,-1.056 -6.9408,-1.8912 -10.24,-1.4656"
       id="path348" /><path
       style="fill:#0c3747;stroke:none;stroke-width:0.32"
       d="m 1198.4552,268.79631 c 6.6304,5.0528 8.32,13.2096 8.32,21.12 0,13.7152 -3.6896,26.7616 -8,39.68 -9.2704,27.7824 -25.6192,52.3296 -39.7248,77.76 -3.904,7.0368 -7.4976,14.2336 -11.0752,21.44 -1.4272,2.8704 -2.4096,7.1456 -4.6848,9.4336 -2.7776,2.7936 -7.04,4.7584 -10.4352,6.7008 -10.4864,6 -23.5264,11.536 -35.84,11.3792 -3.2992,-0.0416 -6.8032,-0.6272 -9.92,-1.7024 -19.6224,-6.784 -14.6016,-32.6976 -7.1104,-46.9312 1.5584,-2.9632 3.2512,-5.8848 5.152,-8.64 2.432,-3.5264 5.1168,-6.7136 7.9456,-9.92 4.7232,-5.3536 14.5184,-14.7616 22.4928,-13.3344 5.7728,1.0336 7.1744,8.1824 6.1856,13.0144 -2.208,10.8 -10.032,18.7584 -18.6656,24.96 6.608,4.1504 18.1824,2.3808 24.96,-0.32 19.376,-7.7216 38.9504,-36.2304 22.304,-55.68 -2.0256,-2.3648 -4.5312,-4.48 -7.264,-5.9808 -4.5888,-2.5184 -9.8592,-3.712 -15.04,-4.2048 -39.504,-3.7632 -71.952,29.3184 -87.2608,62.6656 -3.68,8.0128 -6.7136,16.5856 -8.2848,25.28 -0.5728,3.1776 -1.0528,6.3872 -1.36,9.6 -0.1536,1.616 0.2176,3.5744 -0.6912,5.0272 -3.1904,5.104 -12.336,6.9856 -17.6032,4.9152 -11.7184,-4.6048 -4.7008,-22.9856 -1.472,-31.0624 4.9248,-12.32 11.1936,-23.9072 17.5712,-35.52 3.2416,-5.904 7.9808,-12.3616 6.4544,-19.52 -1.7952,-8.4096 -11.7152,-12.256 -19.0336,-14.3552 -4.288,-1.2288 -8.9536,-2.5664 -13.44,-2.6048 l -4.80003,13.44 c -2.48,-2.6944 -4.8032,-5.1648 -8,-7.0368 -6.9248,-4.0544 -15.5296,-4.6816 -23.36,-3.8976 -22.0608,2.2048 -40.048,17.3152 -53.5648,33.9744 -3.9392,4.8576 -7.5488,10.0288 -10.816,15.36 -3.2512,5.3056 -6.2784,10.9312 -8.7648,16.64 -1.3824,3.184 -2.3488,7.4752 -4.4288,10.24 -5.1872,6.8896 -14.7136,12.3392 -22.2656,16.2368 -14.2592,7.36 -32.0448,13.8432 -48.32,12.1888 -12.656,-1.2864 -19.888,-11.0624 -16,-23.3056 5.2,1.536 11.6224,0.576 16.96,0.3328 23.4016,-1.0624 45.6128,-12.1952 59.6384,-31.0528 10.6752,-14.352 15.76,-31.7568 2.0928,-46.0768 -15.6992,-16.4448 -40.0768,-13.1744 -58.5312,-3.9232 -35.296,17.6928 -56.1728,57.1424 -59.7856,95.12 -2.816,29.6032 24.7168,52.6784 53.3856,48.7744 10.5152,-1.4304 20.8864,-5.2992 30.08,-10.56 14.3072,-8.1824 25.4112,-18.8288 36.16,-31.1744 -2.0928,11.2736 -1.2704,26.7392 7.0688,35.5168 7.6384,8.0384 23.1328,8 32.9312,4.5792 17.584,-6.1312 28.3232,-20.2048 40,-33.696 -2.336,9.8176 -0.1248,24.0384 8.32,30.432 8.9248,6.7584 22.704,6.1184 32.64003,2.2688 8.0512,-3.12 15.2512,-8.8768 21.44,-14.7936 3.1776,-3.04 6.0256,-7.0624 9.6,-9.5872 1.9904,11.1616 14.9792,20.4288 24.96,23.7856 7.1104,2.3904 15.8368,4.08 23.36,3.36 18.7136,-1.7888 38.5216,-14.896 51.52,-27.7856 0,3.616 0.045,7.1136 1.296,10.56 7.9552,21.8688 37.7312,18.7424 54.704,12.16 -0.8384,-6.2144 -2.5344,-12.2208 -2.5344,-18.56 0,-21.3344 11.8976,-43.0848 28.4544,-56.1088 6.224,-4.896 12.9376,-9.504 20.48,-12.096 2.4864,-0.8544 6.768,-2.2144 8.8576,0.1184 1.7824,1.9904 -1.0176,5.3344 -2.1824,6.9664 -4.4,6.1696 -8.64,12.4064 -12.0352,19.2 -6.6144,13.2256 -12.1728,28.9312 -8.6432,43.84 5.3088,22.4256 32.5952,23.2544 49.2032,13.6704 7.936,-4.5824 14.688,-11.0784 21.12,-17.5104 0.3104,3.9488 0.9024,7.872 2.5152,11.52 7.1584,16.1888 28.688,16.7584 42.6048,9.8016 7.2256,-3.6128 13.7152,-9.0464 19.52,-14.6016 1.7824,7.696 8.5184,14.2016 15.36,17.6768 12.2816,6.2432 27.7472,7.1552 40.32,1.2032 -1.9744,-5.52 -4.1792,-10.3776 -4.7456,-16.32 -2.1088,-22.1376 9.424,-45.2288 22.304,-62.4 4.4064,-5.8752 9.4976,-11.408 15.4016,-15.7984 2.3296,-1.7344 5.2768,-3.8912 8.32,-3.9552 3.1968,-0.0704 4.9088,3.1776 4.3136,5.9936 -1.1744,5.5584 -4.4352,10.9632 -6.9536,16 -1.9104,3.8208 -3.728,7.6832 -5.6032,11.52 -1.6608,3.408 -3.0368,6.9664 -4.2368,10.56 -5.4496,16.336 -10.7776,40.4736 7.68,50.7392 4.0032,2.2272 8.6144,3.04 13.12,3.3696 21.0272,1.5424 37.68,-13.824 50.4736,-28.8288 2.9696,-3.4848 5.7472,-7.152 8.4064,-10.88 3.3184,-4.6528 6.432,-9.4432 9.28,-14.4 4.2464,-7.392 8.288,-15.0528 11.3024,-23.04 0.784,-2.08 3.0624,-6.1024 2.0224,-8.3072 -0.8768,-1.8624 -3.2384,-1.968 -4.5792,-0.6048 -3.0176,3.0528 -5.2,7.3728 -7.7472,10.832 -7.8496,10.6464 -16.6144,21.9776 -27.8784,29.216 -5.168,3.3216 -13.3024,4.928 -17.8144,-0.4192 -5.216,-6.1888 -1.584,-17.0016 0.64,-23.6768 4.2144,-12.6368 10.6592,-24.5664 17.1296,-36.16 3.7824,-6.7776 9.0976,-13.6224 8.3392,-21.76 -1.1392,-12.2592 -15.3856,-16.368 -25.5744,-16.32 -16.432,0.08 -32.6752,13.5584 -43.84,24.3168 -3.424,3.2992 -8.3424,6.6112 -10.56,10.8832 h -0.32 c 0.7616,-5.664 2.864,-11.1328 2.1472,-16.96 -1.8176,-14.8032 -17.8304,-22.2464 -30.9472,-25.28 -2.8832,14.8768 -5.7216,30.1024 -11.5232,44.16 -6.64,16.0896 -16.3168,30.5664 -24.0768,46.08 -1.8624,3.7248 -3.2544,8.9184 -5.8144,12.1472 -4.7456,5.9968 -17.6832,9.2704 -22.4352,1.6128 -4.0224,-6.4832 -1.168,-15.744 1.024,-22.4 4.2688,-12.9664 11.0304,-25.2448 17.6608,-37.12 3.4048,-6.1024 8.8288,-13.1488 8.6432,-20.48 -0.2016,-8.112 -7.4048,-13.2608 -14.0384,-16.3904 -5.776,-2.7264 -11.808,-3.5424 -17.92,-5.0496 -8.416,21.6992 -16.4512,43.4784 -25.4656,64.96 -2.3168,5.5232 -4.6016,11.0624 -6.7904,16.64 -1.0048,2.5664 -1.584,5.6224 -2.9728,8 -1.0624,1.824 -3.1232,3.1456 -4.7712,4.4032 -5.8784,4.4896 -19.6768,10.3072 -24.7904,1.3568 -3.4784,-6.0928 1.792,-16.0064 4.7296,-21.44 8.6112,-15.936 20.5216,-32.416 23.7056,-50.56 1.328,-7.5872 -0.256,-16.5728 -7.4848,-20.7296 -4.496,-2.5824 -12.5984,-2.5696 -17.6,-1.8528 -6.0896,0.8704 -11.6736,2.992 -17.28,5.4368 -7.9392,3.4656 -15.3152,8.9984 -22.08,14.3328 -6.7296,5.3088 -12.9472,11.344 -18.8672,17.5328 -2.8992,3.0304 -5.4784,6.5344 -8.6528,9.28 5.1264,-7.776 8.7872,-16.7648 13.2192,-24.96 8.6112,-15.92 15.936,-32.7488 21.6608,-49.92 4.192,-12.576 7.6576,-25.6928 6.3456,-39.04 -0.912,-9.2544 -5.9296,-18.0608 -14.6656,-21.8016 -4.1248,-1.7664 -8.4064,-2.1536 -12.8,-2.5728 -7.5008,-0.7136 -18.5216,2.0416 -22.08,9.6544 m -389.12003,147.2 c 0.6752,-3.9232 3.3312,-7.8496 5.3792,-11.2 5.5744,-9.1136 12.4544,-17.3056 21.1808,-23.5424 3.3824,-2.4192 11.7664,-8.5344 15.3152,-3.3088 3.2256,4.7584 -0.208,13.6256 -2.8576,17.8912 -5.3952,8.6976 -14.8704,14.8288 -24.2976,18.3744 -4.6944,1.7664 -9.7568,2.9824 -14.72,1.7856 m 158.72,-35.4272 c 1.4112,-0.1728 2.7904,0.0288 4.16,0.3808 10.144,2.6112 7.744,14.9312 4.9824,22.2464 -5.696,15.0976 -16.6176,30.0096 -28.0224,41.28 -4.1408,4.0896 -10.1824,9.7632 -16.32,10.2112 -4.5984,0.336 -7.248,-2.7744 -8.2784,-7.0112 -1.4912,-6.1376 -0.0256,-13.552 1.6064,-19.52 3.904,-14.2528 13.2416,-28.4192 24.272,-38.1312 5.0144,-4.4128 10.7904,-8.6304 17.6,-9.456"
       id="path346" /><path
       style="fill:#0c3747;stroke:none;stroke-width:0.32"
       d="m 618.61517,322.23631 h -0.32 c -4.3872,7.0432 -11.2512,13.8944 -18.24,18.336 -3.2928,2.0928 -7.6704,3.7792 -11.52,2.2208 -5.0688,-2.0544 -5.9232,-7.2512 -4.256,-11.9168 2.8032,-7.8528 9.344,-14.848 16.096,-19.5104 11.3824,-7.8656 24.5408,-11.8368 37.76,-15.4176 26,-7.0432 51.936,-9.984 78.72,-6.976 9.6416,1.0816 21.3568,2.6944 29.76,7.8112 4.6464,2.832 8.4256,7.9168 7.5392,13.6128 -1.3536,8.6816 -8.6688,14.9184 -14.5792,20.8 -16.9664,16.8832 -39.8304,28.0448 -63.04,33.1456 -5.2992,1.1616 -10.8928,2.1248 -16.32,2.3616 -2.5216,0.112 -7.3568,-0.656 -9.5712,0.3712 -2.512,1.1648 -4.576,5.4976 -6.2432,7.6416 -5.2768,6.784 -11.6128,13.6544 -15.8656,21.12 14.8448,0 29.6576,-0.592 44.48,-0.9568 7.6672,-0.1856 16.9056,-1.6096 24.32,0.4512 3.2672,0.912 6.4416,2.1504 9.28,4.0256 14.7136,9.7312 12.0992,27.3824 4.5248,40.96 -9.4496,16.9344 -27.136,23.4048 -45.4848,24.6688 -9.3504,0.6432 -20.2272,-0.5568 -27.0624,-7.7632 -3.5136,-3.7056 -4.4256,-7.7696 -5.8976,-12.4256 -4.0288,1.2768 -8.3392,4.5504 -11.52,7.2736 -16.6272,14.2304 -20.0512,39.984 -6.9888,57.6864 9.2704,12.5696 24.9376,17.0016 39.9488,16.6368 12.8416,-0.3168 25.5168,-4.1856 37.12,-9.4976 37.6512,-17.2384 72.1376,-56.3264 60.112,-100.2592 -2.6848,-9.8048 -8.1824,-18.8384 -16.592,-24.7296 -3.1296,-2.192 -6.6528,-4.0192 -10.24,-5.3344 -1.6768,-0.6144 -4.0832,-0.9952 -4.784,-2.9088 -1.2416,-3.3984 4.5408,-4.688 6.704,-5.4272 9.2384,-3.1456 18.2816,-6.256 26.56,-11.536 24.5472,-15.6608 48.384,-50.7584 30.4608,-79.664 -2.3456,-3.7824 -5.5552,-7.2032 -9.0208,-9.9808 -14.912,-11.9552 -35.968,-14.7904 -54.4,-16.6336 -46.9056,-4.688 -95.0272,1.9744 -138.24,21.2192 -3.8208,1.6992 -7.5264,3.6256 -11.2,5.616 -20.48,11.104 -46.7264,32.2176 -36.016,58.6592 6.7552,16.6752 22.9088,21.5232 39.216,21.1232 9.344,-0.2272 19.424,-2.3744 27.2,-7.824 11.7312,-8.2176 17.5904,-22.9024 17.6,-36.9792"
       id="path344" /></g></svg>
